<svg version="1.1" id="Layer_1" xmlns="http://www.w3.org/2000/svg" xmlns:xlink="http://www.w3.org/1999/xlink" x="0px" y="0px"
	 width="100%" viewBox="0 0 225 225" enable-background="new 0 0 225 225" xml:space="preserve">
<path fill="#F1EADE" opacity="1.000000" stroke="none" 
	d="
M127.000000,226.000000 
	C84.666672,226.000000 42.833340,226.000000 1.000006,226.000000 
	C1.000004,151.000000 1.000004,76.000015 1.000002,1.000016 
	C75.999992,1.000010 150.999985,1.000010 225.999969,1.000005 
	C225.999985,75.999985 225.999985,150.999969 226.000000,225.999969 
	C193.166672,226.000000 160.333328,226.000000 127.000000,226.000000 
M192.932220,101.424927 
	C192.640686,101.197647 192.349152,100.970367 191.505432,100.267738 
	C187.293259,101.273781 183.081100,102.279816 179.379547,103.163902 
	C181.755493,116.877739 182.613892,129.364304 178.787613,142.306183 
	C184.543228,142.306183 190.462341,142.306183 195.282379,142.306183 
	C194.628250,135.669174 193.809128,129.552185 193.476517,123.408852 
	C193.090714,116.283272 193.132111,109.134560 192.932220,101.424927 
M73.301018,103.365288 
	C64.799797,103.365288 56.298584,103.365288 46.841217,103.365288 
	C48.030670,99.177650 48.505657,96.022560 49.810005,93.258911 
	C51.793461,89.056374 56.047642,88.696716 59.116627,92.184013 
	C59.985317,93.171120 60.340302,94.828331 61.366848,95.413765 
	C63.605080,96.690224 66.161301,98.270111 68.512978,98.158195 
	C69.886406,98.092827 72.404716,94.741570 72.119118,93.332550 
	C71.647659,91.006630 69.732811,87.926689 67.693344,87.187950 
	C63.724152,85.750221 59.253277,85.242798 54.979752,85.189598 
	C44.363342,85.057457 38.828537,89.539688 35.592430,99.651810 
	C35.041878,101.372162 33.229279,102.705467 31.940504,104.165291 
	C31.338579,104.847115 29.968002,105.507401 30.048399,105.996048 
	C30.209450,106.974922 31.046186,107.901062 31.755714,108.717033 
	C32.725670,109.832512 34.800175,110.885223 34.739155,111.860893 
	C34.115765,121.828590 37.220959,132.145554 31.697281,142.085175 
	C38.468555,142.085175 44.754261,142.085175 51.470592,142.085175 
	C47.090305,134.554138 47.090004,134.554138 47.080666,125.503044 
	C47.078091,123.006554 47.029999,120.509003 47.085049,118.013756 
	C47.304165,108.081322 44.997082,109.081505 56.569157,108.983513 
	C60.039162,108.954124 62.142441,110.394264 61.941986,113.932953 
	C61.415951,123.219193 64.233345,132.817062 58.729092,142.289749 
	C65.234581,142.289749 71.017334,142.289749 75.930595,142.289749 
	C75.334427,134.272308 74.674286,126.612572 74.228157,118.940399 
	C73.958214,114.298096 74.020004,109.636505 73.968933,104.498772 
	C73.968933,104.498772 73.738968,104.070427 73.301018,103.365288 
M164.283249,143.187347 
	C168.550583,143.739700 172.417587,143.292191 175.330688,138.719086 
	C170.392899,137.852341 170.091064,134.576355 170.141647,130.823166 
	C170.229187,124.328232 170.224503,117.817398 169.865463,111.335007 
	C169.457672,103.972183 164.026062,99.049484 157.445007,100.049240 
	C153.086609,100.711334 148.827057,102.024048 144.202698,103.121567 
	C141.800980,99.504166 138.265747,99.663589 130.453262,104.471184 
	C134.171051,116.911873 134.514725,129.349930 130.458618,142.327057 
	C136.211456,142.327057 142.002686,142.327057 148.210175,142.327057 
	C147.944321,141.078430 147.910873,140.255325 147.598740,139.556747 
	C143.814301,131.086456 144.782928,122.282890 145.851700,113.513321 
	C146.330734,109.582710 147.961594,106.256004 152.779358,106.715050 
	C157.503647,107.165176 157.874939,110.887268 157.943817,114.490791 
	C158.067978,120.987236 157.965622,127.487755 158.055969,133.985199 
	C158.112122,138.023178 159.021194,141.650513 164.283249,143.187347 
M84.713936,134.675659 
	C83.835808,136.963257 82.957672,139.250854 81.859329,142.112122 
	C88.076248,142.112122 93.934227,142.112122 100.216263,142.112122 
	C99.353508,139.770630 98.315025,138.226395 98.286888,136.663940 
	C98.132736,128.106430 97.930305,119.524544 98.502838,111.001984 
	C98.608269,109.432571 102.032944,107.297905 104.219269,106.846436 
	C107.284706,106.213432 108.973351,108.641251 109.340340,111.676170 
	C109.579407,113.653244 109.848526,115.640594 109.877075,117.626602 
	C109.960899,123.457726 109.895683,129.290863 109.958176,135.122467 
	C110.001968,139.209213 111.581543,142.427994 115.940018,143.105576 
	C120.261505,143.777405 124.438690,143.399796 127.435951,138.512207 
	C122.221504,137.997894 121.954216,134.782288 121.995132,130.954697 
	C122.068047,124.131706 122.092743,117.269112 121.450623,110.488129 
	C120.755638,103.148880 115.604759,99.141380 108.321350,100.074318 
	C104.247177,100.596191 100.301025,102.117523 96.080093,103.246567 
	C93.533043,99.507164 87.636337,99.998802 82.574196,104.486588 
	C83.391975,108.351234 84.574356,111.809372 84.767410,115.321877 
	C85.105202,121.467567 84.835373,127.646645 84.713936,134.675659 
M180.562057,92.983231 
	C181.571243,93.807968 182.456314,94.964645 183.612274,95.396843 
	C187.490005,96.846680 191.582062,96.717072 193.612656,92.824547 
	C194.615265,90.902596 194.241165,87.108269 192.910828,85.369019 
	C190.316940,81.977829 186.232346,82.014313 182.600555,84.165871 
	C179.448029,86.033501 178.833420,88.981873 180.562057,92.983231 
z"/>
<path fill="#ED7832" opacity="1.000000" stroke="none" 
	d="
M73.932739,104.983582 
	C74.020004,109.636505 73.958214,114.298096 74.228157,118.940399 
	C74.674286,126.612572 75.334427,134.272308 75.930595,142.289749 
	C71.017334,142.289749 65.234581,142.289749 58.729092,142.289749 
	C64.233345,132.817062 61.415951,123.219193 61.941986,113.932953 
	C62.142441,110.394264 60.039162,108.954124 56.569157,108.983513 
	C44.997082,109.081505 47.304165,108.081322 47.085049,118.013756 
	C47.029999,120.509003 47.078091,123.006554 47.080666,125.503044 
	C47.090004,134.554138 47.090305,134.554138 51.470592,142.085175 
	C44.754261,142.085175 38.468555,142.085175 31.697281,142.085175 
	C37.220959,132.145554 34.115765,121.828590 34.739155,111.860893 
	C34.800175,110.885223 32.725670,109.832512 31.755714,108.717033 
	C31.046186,107.901062 30.209450,106.974922 30.048399,105.996048 
	C29.968002,105.507401 31.338579,104.847115 31.940504,104.165291 
	C33.229279,102.705467 35.041878,101.372162 35.592430,99.651810 
	C38.828537,89.539688 44.363342,85.057457 54.979752,85.189598 
	C59.253277,85.242798 63.724152,85.750221 67.693344,87.187950 
	C69.732811,87.926689 71.647659,91.006630 72.119118,93.332550 
	C72.404716,94.741570 69.886406,98.092827 68.512978,98.158195 
	C66.161301,98.270111 63.605080,96.690224 61.366848,95.413765 
	C60.340302,94.828331 59.985317,93.171120 59.116627,92.184013 
	C56.047642,88.696716 51.793461,89.056374 49.810005,93.258911 
	C48.505657,96.022560 48.030670,99.177650 46.841217,103.365288 
	C56.298584,103.365288 64.799797,103.365288 73.413498,103.830482 
	C73.437134,104.629913 73.572723,104.859215 73.932739,104.983582 
z"/>
<path fill="#ED7831" opacity="1.000000" stroke="none" 
	d="
M163.908875,143.114777 
	C159.021194,141.650513 158.112122,138.023178 158.055969,133.985199 
	C157.965622,127.487755 158.067978,120.987236 157.943817,114.490791 
	C157.874939,110.887268 157.503647,107.165176 152.779358,106.715050 
	C147.961594,106.256004 146.330734,109.582710 145.851700,113.513321 
	C144.782928,122.282890 143.814301,131.086456 147.598740,139.556747 
	C147.910873,140.255325 147.944321,141.078430 148.210175,142.327057 
	C142.002686,142.327057 136.211456,142.327057 130.458618,142.327057 
	C134.514725,129.349930 134.171051,116.911873 130.453354,104.471184 
	C138.265747,99.663589 141.800980,99.504166 144.202698,103.121567 
	C148.827057,102.024048 153.086609,100.711334 157.445007,100.049240 
	C164.026062,99.049484 169.457672,103.972183 169.865463,111.335007 
	C170.224503,117.817398 170.229187,124.328232 170.141647,130.823166 
	C170.091064,134.576355 170.392899,137.852341 175.330688,138.719086 
	C172.417587,143.292191 168.550583,143.739700 163.908875,143.114777 
z"/>
<path fill="#ED7831" opacity="1.000000" stroke="none" 
	d="
M84.767036,134.243698 
	C84.835373,127.646645 85.105202,121.467567 84.767410,115.321877 
	C84.574356,111.809372 83.391975,108.351234 82.574196,104.486588 
	C87.636337,99.998802 93.533043,99.507164 96.080093,103.246567 
	C100.301025,102.117523 104.247177,100.596191 108.321350,100.074318 
	C115.604759,99.141380 120.755638,103.148880 121.450623,110.488129 
	C122.092743,117.269112 122.068047,124.131706 121.995132,130.954697 
	C121.954216,134.782288 122.221504,137.997894 127.435951,138.512207 
	C124.438690,143.399796 120.261505,143.777405 115.940018,143.105576 
	C111.581543,142.427994 110.001968,139.209213 109.958176,135.122467 
	C109.895683,129.290863 109.960899,123.457726 109.877075,117.626602 
	C109.848526,115.640594 109.579407,113.653244 109.340340,111.676170 
	C108.973351,108.641251 107.284706,106.213432 104.219269,106.846436 
	C102.032944,107.297905 98.608269,109.432571 98.502838,111.001984 
	C97.930305,119.524544 98.132736,128.106430 98.286888,136.663940 
	C98.315025,138.226395 99.353508,139.770630 100.216263,142.112122 
	C93.934227,142.112122 88.076248,142.112122 81.859329,142.112122 
	C82.957672,139.250854 83.835808,136.963257 84.767036,134.243698 
z"/>
<path fill="#ED7B36" opacity="1.000000" stroke="none" 
	d="
M192.988052,101.995888 
	C193.132111,109.134560 193.090714,116.283272 193.476517,123.408852 
	C193.809128,129.552185 194.628250,135.669174 195.282379,142.306183 
	C190.462341,142.306183 184.543228,142.306183 178.787613,142.306183 
	C182.613892,129.364304 181.755493,116.877739 179.379547,103.163902 
	C183.081100,102.279816 187.293259,101.273781 191.867828,100.761185 
	C192.482849,101.501717 192.735458,101.748802 192.988052,101.995888 
z"/>
<path fill="#ED7731" opacity="1.000000" stroke="none" 
	d="
M180.361877,92.666664 
	C178.833420,88.981873 179.448029,86.033501 182.600555,84.165871 
	C186.232346,82.014313 190.316940,81.977829 192.910828,85.369019 
	C194.241165,87.108269 194.615265,90.902596 193.612656,92.824547 
	C191.582062,96.717072 187.490005,96.846680 183.612274,95.396843 
	C182.456314,94.964645 181.571243,93.807968 180.361877,92.666664 
z"/>
<path fill="#ED7123" opacity="1.000000" stroke="none" 
	d="
M192.960144,101.710403 
	C192.735458,101.748802 192.482849,101.501717 192.143921,100.998856 
	C192.349152,100.970367 192.640686,101.197647 192.960144,101.710403 
z"/>
<path fill="#ED7124" opacity="1.000000" stroke="none" 
	d="
M73.950836,104.741180 
	C73.572723,104.859215 73.437134,104.629913 73.632477,104.183052 
	C73.738968,104.070427 73.968933,104.498772 73.950836,104.741180 
z"/>
</svg>