<svg version="1.1" id="Layer_1" xmlns="http://www.w3.org/2000/svg" xmlns:xlink="http://www.w3.org/1999/xlink" x="0px" y="0px"
	 width="100%" viewBox="0 0 200 194" enable-background="new 0 0 200 194" xml:space="preserve">
<path fill="#FFFEFE" opacity="1.000000" stroke="none" 
	d="
M1.000000,76.000000 
	C1.000000,50.666672 1.000000,25.833345 1.000000,1.000013 
	C67.666649,1.000009 134.333298,1.000009 200.999954,1.000004 
	C200.999969,65.666634 200.999969,130.333267 200.999985,194.999908 
	C134.333389,194.999939 67.666771,194.999939 1.000080,194.999969 
	C1.000000,155.500000 1.000000,116.000000 1.000000,76.000000 
M65.917343,91.023590 
	C65.958443,87.043358 65.793594,83.048470 66.075752,79.085403 
	C67.406143,60.399750 81.587044,51.984707 98.632072,59.818333 
	C102.117439,61.420155 105.298546,63.684013 109.908463,66.402588 
	C104.804512,53.680611 99.925659,42.381058 93.250526,31.428978 
	C96.433807,24.791367 96.679245,17.997164 93.923019,11.221145 
	C92.355728,7.368030 89.359642,4.305161 85.069328,6.186234 
	C79.829872,8.483462 74.574753,11.378171 71.784813,17.609871 
	C59.010685,15.791650 46.405636,15.499922 34.172493,21.126703 
	C30.502878,15.402926 24.636099,13.118418 18.555662,11.203412 
	C14.711740,9.992788 12.160679,11.173540 11.029447,15.250583 
	C8.618892,23.938396 11.022845,31.618793 15.229391,39.483624 
	C9.729503,50.716553 6.387741,69.212212 9.401461,73.055824 
	C10.588331,71.635345 11.678205,70.209900 12.891587,68.898750 
	C19.838642,61.391922 28.549814,58.893578 38.270081,61.153004 
	C46.750214,63.124172 51.106548,69.636475 53.095791,77.681046 
	C54.281998,82.478127 54.851433,87.427734 55.372887,93.033356 
	C56.170170,94.906715 56.602997,98.013962 57.845238,98.380882 
	C60.022007,99.023834 62.989391,98.526932 65.032227,97.416245 
	C66.004364,96.887703 65.612000,93.849495 65.917343,91.023590 
M73.922928,187.973801 
	C84.420692,188.034515 94.931572,187.787704 105.412888,188.234314 
	C118.325447,188.784515 130.948029,188.088913 143.249786,183.606674 
	C172.464554,172.962036 197.418655,134.172028 195.742996,99.174339 
	C195.676666,97.788979 195.146561,96.425812 195.151810,96.448753 
	C190.268173,96.066811 186.093521,96.406891 182.402679,95.229866 
	C179.700958,94.368301 178.005798,94.226631 175.645065,95.801727 
	C171.676407,98.449638 166.675232,97.854408 163.715225,94.848862 
	C160.378891,91.461205 157.068893,88.047600 152.647522,83.518593 
	C148.681976,91.893852 144.467316,98.773468 142.110046,106.239532 
	C138.414322,117.944824 136.037994,130.062836 132.981964,141.975052 
	C129.839584,154.223831 124.712631,165.247147 113.128647,171.873764 
	C111.126541,173.019073 108.767136,173.539810 106.198288,174.487137 
	C109.886154,140.838257 112.548790,108.385468 89.893150,79.253281 
	C83.360092,85.640160 77.205719,91.419441 71.326080,97.465858 
	C64.206169,104.787727 58.208832,105.038582 50.629513,98.298706 
	C46.221115,94.378563 41.490959,90.820259 36.905579,87.099136 
	C36.301479,87.318459 35.697380,87.537773 35.093281,87.757088 
	C35.093281,97.340034 35.093281,106.922981 34.613659,117.273491 
	C32.889187,138.598740 32.669586,160.133667 25.348143,180.660141 
	C24.304245,183.586823 25.350723,185.943039 29.056042,186.116241 
	C32.367504,186.271042 35.675369,186.502731 39.808762,186.872162 
	C41.207752,186.869797 42.606739,186.867432 44.865417,187.040146 
	C54.241280,187.307602 63.617142,187.575043 73.922928,187.973801 
M39.383728,74.038185 
	C40.021950,72.386528 40.660172,70.734863 41.298389,69.083199 
	C39.862892,69.586914 38.296398,69.872704 37.019478,70.640244 
	C34.451286,72.183952 32.829784,71.492119 31.320347,69.098427 
	C30.866470,68.378654 29.530233,68.215286 28.598209,67.797028 
	C28.372118,68.947777 27.674103,70.259460 28.002104,71.221245 
	C29.379162,75.259163 33.433918,76.397575 39.383728,74.038185 
M77.380928,65.254356 
	C76.872017,66.165886 75.713303,67.349342 75.962067,67.943787 
	C77.339111,71.234306 80.333359,73.153793 83.493210,71.891876 
	C86.020889,70.882423 87.827072,68.023148 89.840469,65.878769 
	C89.958534,65.753021 89.110023,64.196709 88.632599,64.152290 
	C87.831635,64.077774 86.492111,64.452255 86.203995,65.041245 
	C83.661057,70.239899 80.926071,67.964188 77.380928,65.254356 
z"/>
<path fill="#EC7731" opacity="1.000000" stroke="none" 
	d="
M44.005730,186.865051 
	C42.606739,186.867432 41.207752,186.869797 39.391640,186.409668 
	C40.560257,177.518585 42.808895,169.150681 43.587086,160.648178 
	C44.997597,145.236969 42.417751,130.354828 35.093281,116.505928 
	C35.093281,106.922981 35.093281,97.340034 35.093281,87.757088 
	C35.697380,87.537773 36.301479,87.318459 36.905579,87.099136 
	C41.490959,90.820259 46.221115,94.378563 50.629513,98.298706 
	C58.208832,105.038582 64.206169,104.787727 71.326080,97.465858 
	C77.205719,91.419441 83.360092,85.640160 89.893150,79.253281 
	C112.548790,108.385468 109.886154,140.838257 106.198288,174.487137 
	C108.767136,173.539810 111.126541,173.019073 113.128647,171.873764 
	C124.712631,165.247147 129.839584,154.223831 132.981964,141.975052 
	C136.037994,130.062836 138.414322,117.944824 142.110046,106.239532 
	C144.467316,98.773468 148.681976,91.893852 152.647522,83.518593 
	C157.068893,88.047600 160.378891,91.461205 163.715225,94.848862 
	C166.675232,97.854408 171.676407,98.449638 175.645065,95.801727 
	C178.005798,94.226631 179.700958,94.368301 182.402679,95.229866 
	C186.093521,96.406891 190.268173,96.066811 195.151810,96.448753 
	C195.146561,96.425812 195.676666,97.788979 195.742996,99.174339 
	C197.418655,134.172028 172.464554,172.962036 143.249786,183.606674 
	C130.948029,188.088913 118.325447,188.784515 105.412888,188.234314 
	C94.931572,187.787704 84.420692,188.034515 73.464027,187.486694 
	C72.991554,185.842377 73.243637,184.602921 72.915527,183.543091 
	C71.850044,180.101517 71.134987,176.311340 69.090820,173.534470 
	C68.305115,172.467163 64.307693,173.802887 61.768898,173.971420 
	C60.451405,174.058884 59.122162,174.027634 57.800430,173.983704 
	C48.214085,173.665054 44.761208,178.323639 44.005730,186.865051 
z"/>
<path fill="#ED7731" opacity="1.000000" stroke="none" 
	d="
M92.908348,32.097046 
	C99.925659,42.381058 104.804512,53.680611 109.908463,66.402588 
	C105.298546,63.684013 102.117439,61.420155 98.632072,59.818333 
	C81.587044,51.984707 67.406143,60.399750 66.075752,79.085403 
	C65.793594,83.048470 65.958443,87.043358 65.505135,91.402245 
	C61.961330,91.956856 58.829731,92.132812 55.698135,92.308762 
	C54.851433,87.427734 54.281998,82.478127 53.095791,77.681046 
	C51.106548,69.636475 46.750214,63.124172 38.270081,61.153004 
	C28.549814,58.893578 19.838642,61.391922 12.891587,68.898750 
	C11.678205,70.209900 10.588331,71.635345 9.401461,73.055824 
	C6.387741,69.212212 9.729503,50.716553 15.780169,39.134148 
	C17.361427,37.586716 18.391909,36.388763 19.627453,34.937782 
	C23.331890,31.413076 26.831266,28.141401 30.640491,24.850929 
	C32.141483,23.800463 33.332626,22.768789 34.523773,21.737118 
	C46.405636,15.499922 59.010685,15.791650 72.336189,17.853390 
	C74.148964,18.962044 75.410362,19.827183 77.044754,20.800125 
	C81.211761,23.567348 85.005775,26.226768 88.915848,29.214012 
	C90.324066,30.393572 91.616203,31.245308 92.908348,32.097046 
z"/>
<path fill="#181818" opacity="1.000000" stroke="none" 
	d="
M34.853470,116.889709 
	C42.417751,130.354828 44.997597,145.236969 43.587086,160.648178 
	C42.808895,169.150681 40.560257,177.518585 38.979668,186.323822 
	C35.675369,186.502731 32.367504,186.271042 29.056042,186.116241 
	C25.350723,185.943039 24.304245,183.586823 25.348143,180.660141 
	C32.669586,160.133667 32.889187,138.598740 34.853470,116.889709 
z"/>
<path fill="#181717" opacity="1.000000" stroke="none" 
	d="
M44.435574,186.952606 
	C44.761208,178.323639 48.214085,173.665054 57.800430,173.983704 
	C59.122162,174.027634 60.451405,174.058884 61.768898,173.971420 
	C64.307693,173.802887 68.305115,172.467163 69.090820,173.534470 
	C71.134987,176.311340 71.850044,180.101517 72.915527,183.543091 
	C73.243637,184.602921 72.991554,185.842377 72.999069,187.421021 
	C63.617142,187.575043 54.241280,187.307602 44.435574,186.952606 
z"/>
<path fill="#1F1F1F" opacity="1.000000" stroke="none" 
	d="
M34.348133,21.431911 
	C33.332626,22.768789 32.141483,23.800463 30.522251,24.523701 
	C26.607054,21.782187 23.271198,19.080441 19.583214,17.004162 
	C16.816212,15.446381 14.703421,17.066509 15.291001,20.050610 
	C16.299030,25.170021 18.007812,30.151451 19.422390,35.190811 
	C18.391909,36.388763 17.361427,37.586716 16.028418,38.825294 
	C11.022845,31.618793 8.618892,23.938396 11.029447,15.250583 
	C12.160679,11.173540 14.711740,9.992788 18.555662,11.203412 
	C24.636099,13.118418 30.502878,15.402926 34.348133,21.431911 
z"/>
<path fill="#202020" opacity="1.000000" stroke="none" 
	d="
M76.671761,20.692320 
	C75.410362,19.827183 74.148964,18.962044 72.772774,17.836464 
	C74.574753,11.378171 79.829872,8.483462 85.069328,6.186234 
	C89.359642,4.305161 92.355728,7.368030 93.923019,11.221145 
	C96.679245,17.997164 96.433807,24.791367 93.079437,31.763012 
	C91.616203,31.245308 90.324066,30.393572 89.052521,28.851517 
	C89.434029,23.826609 90.391174,19.436241 89.992317,15.172727 
	C89.572525,10.685302 86.483322,9.604621 83.060661,12.604812 
	C80.520065,14.831815 78.772545,17.963572 76.671761,20.692320 
z"/>
<path fill="#20201F" opacity="1.000000" stroke="none" 
	d="
M55.535511,92.671059 
	C58.829731,92.132812 61.961330,91.956856 65.465332,91.864525 
	C65.612000,93.849495 66.004364,96.887703 65.032227,97.416245 
	C62.989391,98.526932 60.022007,99.023834 57.845238,98.380882 
	C56.602997,98.013962 56.170170,94.906715 55.535511,92.671059 
z"/>
<path fill="#2B2B2B" opacity="1.000000" stroke="none" 
	d="
M39.090187,74.267014 
	C33.433918,76.397575 29.379162,75.259163 28.002104,71.221245 
	C27.674103,70.259460 28.372118,68.947777 28.598209,67.797028 
	C29.530233,68.215286 30.866470,68.378654 31.320347,69.098427 
	C32.829784,71.492119 34.451286,72.183952 37.019478,70.640244 
	C38.296398,69.872704 39.862892,69.586914 41.298393,69.083206 
	C40.660172,70.734863 40.021950,72.386528 39.090187,74.267014 
z"/>
<path fill="#202020" opacity="1.000000" stroke="none" 
	d="
M77.752625,65.327591 
	C80.926071,67.964188 83.661057,70.239899 86.203995,65.041245 
	C86.492111,64.452255 87.831635,64.077774 88.632599,64.152290 
	C89.110023,64.196709 89.958534,65.753021 89.840469,65.878769 
	C87.827072,68.023148 86.020889,70.882423 83.493210,71.891876 
	C80.333359,73.153793 77.339111,71.234306 75.962067,67.943787 
	C75.713303,67.349342 76.872017,66.165886 77.752625,65.327591 
z"/>
<path fill="#F7F6F6" opacity="1.000000" stroke="none" 
	d="
M19.627453,34.937782 
	C18.007812,30.151451 16.299030,25.170021 15.291001,20.050610 
	C14.703421,17.066509 16.816212,15.446381 19.583214,17.004162 
	C23.271198,19.080441 26.607054,21.782187 30.212402,24.542496 
	C26.831266,28.141401 23.331890,31.413076 19.627453,34.937782 
z"/>
<path fill="#FAF8F7" opacity="1.000000" stroke="none" 
	d="
M77.044754,20.800125 
	C78.772545,17.963572 80.520065,14.831815 83.060661,12.604812 
	C86.483322,9.604621 89.572525,10.685302 89.992317,15.172727 
	C90.391174,19.436241 89.434029,23.826609 88.936455,28.523693 
	C85.005775,26.226768 81.211761,23.567348 77.044754,20.800125 
z"/>
</svg>